<?xml version="1.0" encoding="UTF-8"?>
<!DOCTYPE svg PUBLIC "-//W3C//DTD SVG 1.1//EN" "http://www.w3.org/Graphics/SVG/1.1/DTD/svg11.dtd">
<!-- Creator: CorelDRAW X8 -->
<svg xmlns="http://www.w3.org/2000/svg" xml:space="preserve" width="210mm" height="297mm" version="1.1" style="shape-rendering:geometricPrecision; text-rendering:geometricPrecision; image-rendering:optimizeQuality; fill-rule:evenodd; clip-rule:evenodd"
viewBox="0 0 21000 29700"
 xmlns:xlink="http://www.w3.org/1999/xlink">
 <defs>
  <style type="text/css">
   <![CDATA[
    .fil1 {fill:#898989}
    .fil3 {fill:#E31E24}
    .fil2 {fill:#FEFEFE}
    .fil0 {fill:#898989;fill-rule:nonzero}
   ]]>
  </style>
 </defs>
 <g id="Capa_x0020_1">
  <metadata id="CorelCorpID_0Corel-Layer"/>
  <path class="fil0" d="M5452 12088l43 -251c94,23 178,35 252,35 75,0 135,-3 181,-9l0 -76 -137 -13c-124,-11 -209,-41 -256,-89 -46,-48 -69,-119 -69,-214 0,-130 28,-219 85,-268 56,-49 152,-73 287,-73 135,0 257,13 366,38l-39 244c-94,-16 -170,-23 -227,-23 -56,0 -105,2 -144,7l0 75 109 11c133,13 225,45 276,95 51,50 76,120 76,210 0,64 -8,118 -26,162 -17,44 -37,78 -61,100 -24,23 -58,41 -102,53 -43,12 -82,19 -115,22 -33,3 -77,4 -131,4 -132,0 -255,-13 -368,-40zm1527 -343l-305 0 0 116 374 0 0 244 -678 0 0 -952 670 0 -38 243 -328 0 0 128 305 0 0 221zm686 80l0 -42 -78 0 0 -233 367 0 0 509c-121,46 -246,69 -375,69 -173,0 -293,-42 -358,-127 -33,-43 -57,-95 -70,-154 -13,-58 -20,-131 -20,-218 0,-87 7,-160 21,-218 14,-58 38,-109 74,-153 67,-85 196,-128 388,-128 40,0 92,4 155,12 64,8 110,17 139,27l-45 234c-83,-15 -157,-22 -223,-22 -67,0 -114,5 -141,15 -27,11 -40,31 -40,61l0 432 101 0c36,0 63,-4 80,-12 16,-7 25,-25 25,-52zm708 -672l0 714 108 0c39,0 65,-5 80,-14 14,-10 21,-32 21,-66l0 -634 305 0 0 534c0,87 -6,156 -17,209 -11,53 -32,98 -63,134 -30,37 -72,62 -125,76 -52,15 -121,22 -205,22 -85,0 -153,-7 -205,-22 -52,-14 -94,-39 -124,-76 -31,-36 -52,-81 -63,-134 -11,-53 -17,-122 -17,-209l0 -534 305 0zm1473 952l-335 0 -125 -283 -65 0 0 283 -305 0 0 -952 480 0c218,0 328,111 328,333 0,153 -48,253 -142,302l164 317zm-525 -709l0 191 70 0c36,0 63,-4 80,-11 17,-8 25,-26 25,-53l0 -63c0,-27 -8,-44 -25,-52 -17,-8 -44,-12 -80,-12l-70 0zm632 709l0 -952 305 0 0 952 -305 0zm457 0l0 -952 427 0c171,0 289,36 353,109 64,74 96,196 96,367 0,171 -32,293 -96,366 -64,73 -182,110 -353,110l-427 0zm431 -709l-126 0 0 465 126 0c42,0 72,-5 91,-14 19,-10 28,-32 28,-67l0 -303c0,-34 -9,-56 -28,-66 -19,-10 -49,-15 -91,-15zm779 709l-322 0 247 -952 471 0 247 952 -322 0 -35 -151 -251 0 -35 151zm152 -660l-62 267 140 0 -61 -267 -17 0zm549 660l0 -952 426 0c172,0 290,36 354,109 64,74 96,196 96,367 0,171 -32,293 -96,366 -64,73 -182,110 -354,110l-426 0zm431 -709l-126 0 0 465 126 0c42,0 72,-5 91,-14 18,-10 28,-32 28,-67l0 -303c0,-34 -10,-56 -28,-66 -19,-10 -49,-15 -91,-15z"/>
  <path class="fil0" d="M5503 14215l0 -1672 867 0c160,0 275,31 344,93 68,63 103,154 103,273 0,120 -22,212 -66,277 -44,66 -102,108 -175,128l0 16c216,37 324,184 324,441 0,134 -36,241 -107,323 -72,81 -182,121 -330,121l-960 0zm744 -666l-209 0 0 273 206 0c75,0 112,-45 112,-136 0,-91 -36,-137 -109,-137zm-41 -640l-168 0 0 249 166 0c68,0 102,-41 102,-124 0,-83 -34,-125 -100,-125zm801 471c0,-305 57,-527 171,-667 114,-140 320,-210 618,-210 298,0 504,70 618,210 115,140 172,362 172,667 0,152 -12,280 -37,383 -24,104 -65,194 -124,270 -59,77 -140,133 -243,169 -104,36 -232,54 -386,54 -153,0 -282,-18 -385,-54 -104,-36 -185,-92 -244,-169 -59,-76 -100,-166 -124,-270 -24,-103 -36,-231 -36,-383zm575 -278l0 696 222 0c73,0 126,-9 159,-25 33,-17 50,-56 50,-117l0 -696 -225 0c-71,0 -123,9 -156,26 -33,17 -50,55 -50,116zm1124 1084l75 -442c164,41 312,62 443,62 131,0 237,-5 317,-16l0 -134 -241 -21c-218,-20 -367,-72 -448,-157 -81,-85 -122,-210 -122,-376 0,-228 50,-385 149,-471 99,-86 267,-128 504,-128 237,0 451,22 642,67l-67 428c-165,-27 -298,-40 -398,-40 -100,0 -185,4 -255,13l0 131 193 19c234,23 395,79 485,167 89,88 133,211 133,368 0,112 -15,208 -45,285 -30,78 -67,137 -109,177 -41,40 -101,71 -177,92 -77,21 -145,34 -203,39 -58,4 -135,7 -231,7 -232,0 -447,-24 -645,-70zm2722 -450l40 450c-113,46 -254,70 -423,70 -169,0 -306,-18 -408,-54 -103,-36 -183,-92 -242,-169 -59,-76 -100,-166 -123,-270 -24,-103 -35,-231 -35,-383 0,-151 11,-279 35,-384 23,-104 64,-194 123,-271 114,-148 324,-222 629,-222 67,0 147,6 239,20 92,13 160,30 205,49l-80 410c-116,-25 -223,-38 -319,-38 -96,0 -163,9 -201,27 -37,18 -56,54 -56,107l0 701c70,14 140,22 212,22 151,0 286,-22 404,-65zm1164 479l0 -591 -402 0 0 591 -535 0 0 -1672 535 0 0 591 402 0 0 -591 535 0 0 1672 -535 0z"/>
  <path class="fil1" d="M17323 11000c-111,-56 -838,-4 -1327,-296 -194,-116 -149,-144 -292,-267 -183,56 -220,423 -1175,520 -663,67 -529,-262 -529,1175 0,1330 -216,1913 1500,2761 257,128 343,20 579,-114 352,-198 772,-479 973,-731 364,-456 320,-676 320,-1383 0,-145 50,-1552 -49,-1665z"/>
  <path class="fil2" d="M16994 11374c-517,-176 -681,132 -1290,-441 -168,57 -208,319 -908,396 -330,36 -437,-85 -435,231 10,1534 -237,1939 734,2600 475,323 570,363 871,187 984,-576 1042,-806 1042,-1647 -1,-339 37,-1028 -14,-1326z"/>
  <path class="fil3" d="M15417 12871c-70,-72 -375,-310 -459,-354 -128,54 -202,115 -258,219 70,133 308,356 430,467l467 425c153,-218 253,-515 565,-932 160,-214 648,-731 666,-807l-86 -112c-476,183 -1168,987 -1325,1094z"/>
 </g>
</svg>
