<svg version="1.1" id="Layer_1" xmlns="http://www.w3.org/2000/svg" xmlns:xlink="http://www.w3.org/1999/xlink" x="0px" y="0px"
	 width="100%" viewBox="0 0 462 180" enable-background="new 0 0 462 180" xml:space="preserve">
<path fill="#FEFEFE" opacity="1.000000" stroke="none" 
	d="
M286.000000,181.000000 
	C190.666702,181.000000 95.833405,181.000000 1.000076,181.000000 
	C1.000051,121.000053 1.000051,61.000111 1.000026,1.000125 
	C154.999893,1.000083 308.999786,1.000083 462.999756,1.000041 
	C462.999817,60.999866 462.999817,120.999733 462.999908,180.999802 
	C404.166656,181.000000 345.333344,181.000000 286.000000,181.000000 
M456.874451,90.499733 
	C456.955933,80.337425 457.178131,70.173714 457.077454,60.013214 
	C456.985138,50.696175 456.473297,41.384003 456.287964,32.066872 
	C456.197876,27.539959 453.732697,26.322569 449.635742,25.874147 
	C440.066010,24.826725 430.451050,23.785450 421.035278,21.858130 
	C412.366333,20.083685 404.046844,16.890463 397.897644,9.946379 
	C393.420319,4.890278 392.998962,4.665042 388.245850,9.719827 
	C382.445557,15.888234 375.424530,20.132175 367.319611,21.682238 
	C356.914520,23.672215 346.317993,24.803549 335.754547,25.757328 
	C331.169891,26.171280 329.001923,27.841265 329.011749,32.377308 
	C329.065552,57.199474 328.809967,82.027115 329.261230,106.841957 
	C329.570007,123.820709 335.450348,138.606567 348.584839,150.192459 
	C360.209381,160.446472 373.515350,167.908585 387.251770,174.723633 
	C391.854675,177.007263 396.605255,176.754532 401.044250,173.830643 
	C412.847076,166.056396 425.010559,158.772247 436.361298,150.387146 
	C445.616241,143.550247 452.876709,134.308502 454.856293,122.747810 
	C456.608215,112.516747 456.281097,101.929680 456.874451,90.499733 
M64.997032,115.559937 
	C65.045403,118.555969 64.938957,121.563904 65.168015,124.546059 
	C66.390152,140.457184 74.226837,148.826218 89.291565,149.794235 
	C94.389687,150.121826 99.595306,149.686966 104.684105,149.055222 
	C114.575943,147.827194 120.553459,141.846390 122.937172,132.387451 
	C125.327370,122.902733 125.416367,113.267052 123.316833,103.714874 
	C120.426384,90.564285 113.512077,84.817909 100.016388,84.007492 
	C97.857849,83.877876 95.689209,83.856239 93.525986,83.874420 
	C75.614044,84.024933 68.022087,90.533852 65.344948,108.118431 
	C65.021111,110.245529 65.103226,112.434425 64.997032,115.559937 
M7.995986,111.500000 
	C7.995986,123.741562 7.995986,135.983124 7.995986,148.058014 
	C21.931202,148.058014 35.198956,148.363876 48.441612,147.920349 
	C54.459614,147.718796 58.354786,143.682693 60.029995,137.804001 
	C63.037453,127.250137 59.767990,120.077827 49.272022,114.524300 
	C49.895355,114.130997 50.417553,113.805099 50.936237,113.473694 
	C56.347790,110.016121 58.901867,103.448044 57.546940,96.476242 
	C56.218575,89.641113 53.351028,86.185410 45.765697,85.788239 
	C33.384808,85.139969 20.945198,85.613091 7.995983,85.613091 
	C7.995983,93.954567 7.995983,102.227287 7.995986,111.500000 
M276.952850,85.322884 
	C276.634247,87.041870 276.078552,88.755684 276.040863,90.480812 
	C275.921875,95.926727 275.997009,101.376884 275.997009,106.895920 
	C270.703918,106.895920 266.016907,106.895920 260.904083,106.895920 
	C260.904083,99.544228 260.904083,92.613739 260.904083,85.467407 
	C254.083725,85.467407 247.701141,85.467407 241.110901,85.467407 
	C241.110901,106.549324 241.110901,127.296211 241.110901,148.359344 
	C247.755630,148.359344 254.149857,148.359344 261.179138,148.359344 
	C261.179138,140.853088 261.179138,133.634323 261.179138,126.463524 
	C266.401001,126.463524 270.983765,126.463524 276.009583,126.463524 
	C276.009583,133.871582 276.009583,140.969223 276.009583,148.358002 
	C282.854187,148.358002 289.248444,148.358002 295.714905,148.358002 
	C295.714905,127.183411 295.714905,106.329475 295.714905,85.167480 
	C289.487000,85.167480 283.679230,85.167480 276.952850,85.322884 
M156.292206,126.994484 
	C159.018539,126.935051 161.803467,127.238052 160.545319,130.917450 
	C160.184677,131.972076 157.573685,132.843369 156.019119,132.804886 
	C148.114365,132.609161 140.217712,132.086975 131.860107,131.655457 
	C131.028534,136.552185 130.149261,141.729782 129.197968,147.331512 
	C142.317902,150.270050 155.118561,151.109253 168.047150,148.831741 
	C175.414551,147.533905 179.638870,142.921127 181.525238,135.805664 
	C185.245972,121.770943 179.868805,111.424164 167.005142,108.351707 
	C164.107666,107.659653 161.076401,107.546219 158.146011,106.967537 
	C155.839478,106.512062 152.022842,108.143761 152.006180,103.939224 
	C151.986862,99.061012 156.178207,101.159203 158.439453,101.132271 
	C164.364426,101.061691 170.296951,101.623177 176.565247,101.950439 
	C177.391479,96.705917 178.180359,91.698517 179.028870,86.312531 
	C166.657349,83.736961 154.667084,82.600311 142.603561,85.170967 
	C137.228470,86.316360 132.910950,89.565254 131.795822,95.095230 
	C130.729340,100.383926 130.125107,105.971001 130.595352,111.314491 
	C131.239136,118.630150 135.790527,123.438072 143.120560,125.031647 
	C147.165924,125.911125 151.310699,126.333328 156.292206,126.994484 
M191.992325,93.623802 
	C185.153687,106.841347 185.897598,120.622192 189.313370,134.455750 
	C190.729965,140.192871 194.437576,144.676941 199.968719,146.981628 
	C210.031784,151.174713 220.434708,150.928329 230.817825,148.249893 
	C231.879135,147.976120 233.377289,146.333908 233.339783,145.379074 
	C233.152817,140.620102 232.520081,135.878647 232.019821,130.887360 
	C224.030228,132.014206 216.593231,134.484390 208.882614,131.401810 
	C208.882614,122.903694 208.929520,114.584351 208.860458,106.265976 
	C208.831192,102.742950 210.496765,100.924210 213.926437,100.868454 
	C219.363876,100.780045 224.803787,100.844872 230.735565,100.844872 
	C231.302765,98.064331 231.824860,94.627525 232.730392,91.294891 
	C233.784958,87.413719 232.841461,85.198257 228.538528,84.970474 
	C227.385803,84.909462 226.256714,84.425346 225.103165,84.353271 
	C213.247894,83.612534 201.215866,82.261955 191.992325,93.623802 
M193.306168,57.473644 
	C193.306168,61.088413 193.306168,64.703186 193.306168,69.207870 
	C201.305099,68.811707 208.761673,68.915077 216.075974,67.945366 
	C223.192017,67.001923 225.890182,62.689068 226.727875,53.333305 
	C227.615143,43.423996 224.751572,36.468979 218.775238,34.045151 
	C218.160263,33.795731 217.519104,33.431046 216.888397,33.427563 
	C209.174301,33.384926 201.459885,33.399830 193.306671,33.399830 
	C193.306671,41.246994 193.306671,48.864948 193.306168,57.473644 
M150.525452,32.861866 
	C147.442719,32.861866 144.359985,32.861866 141.298950,32.861866 
	C141.298950,45.240517 141.298950,56.818462 141.298950,68.634201 
	C145.024933,68.634201 148.446167,68.634201 152.318161,68.634201 
	C152.578690,65.010880 152.826035,61.570702 153.073395,58.130524 
	C153.559235,58.050781 154.045074,57.971035 154.530914,57.891293 
	C156.227722,61.374393 157.070175,66.204849 159.855621,67.971062 
	C162.786545,69.829514 167.575638,68.757454 172.191406,68.999344 
	C171.115829,66.640587 170.613968,65.229729 169.868073,63.962528 
	C167.648712,60.192135 166.579483,57.337154 169.660034,52.591923 
	C175.892746,42.991238 169.458954,32.922855 158.003326,32.863636 
	C155.838562,32.852444 153.673706,32.861824 150.525452,32.861866 
M265.860107,47.504189 
	C265.860107,54.448051 265.860107,61.391914 265.860107,69.182632 
	C273.577118,68.807327 280.716431,68.869049 287.742798,68.008530 
	C295.455750,67.063904 298.597382,62.197891 298.953003,52.322884 
	C299.359558,41.032509 296.478333,34.661659 288.939545,33.680958 
	C281.494598,32.712460 273.825195,33.469391 265.859924,33.469391 
	C265.859924,37.899887 265.859924,42.203583 265.860107,47.504189 
M124.339699,34.908096 
	C124.327316,41.232712 124.331940,47.557423 124.297661,53.881920 
	C124.264725,59.957623 123.267899,60.663013 116.575043,58.931850 
	C116.575043,50.491245 116.575043,41.902084 116.575043,33.203224 
	C112.488274,33.203224 108.933929,33.203224 104.986267,33.203224 
	C104.986267,40.176067 104.945587,46.804134 104.994942,53.431534 
	C105.090408,66.250015 109.167473,70.155609 121.919922,69.678017 
	C123.239540,69.628601 124.558403,69.396515 125.864319,69.171906 
	C131.868362,68.139275 135.180740,65.529106 135.560745,59.579556 
	C136.118042,50.854107 135.704285,42.066635 135.704285,32.396263 
	C131.698334,32.971188 128.095016,33.488331 124.339699,34.908096 
M250.239807,32.861965 
	C247.573410,32.861946 244.869537,33.145176 242.248962,32.798653 
	C237.793625,32.209515 235.706680,33.745426 234.889771,38.336540 
	C233.815262,44.375431 231.910400,50.265759 230.382431,56.225056 
	C229.339539,60.292564 228.330597,64.368774 227.198334,68.871048 
	C230.858536,68.871048 233.701523,69.081764 236.486557,68.771812 
	C237.672424,68.639839 239.626373,67.504120 239.705582,66.678223 
	C240.083542,62.736942 242.644791,63.016197 245.426132,62.955200 
	C248.322464,62.891685 250.695938,62.978939 251.143158,66.725807 
	C251.239670,67.534325 252.827087,68.679955 253.810852,68.770836 
	C256.753632,69.042671 259.737579,68.868561 262.686646,68.868561 
	C262.865326,67.912476 263.124390,67.395279 263.017731,66.969757 
	C260.350464,56.327946 257.725800,45.673454 254.814178,35.098137 
	C254.537628,34.093662 252.421402,33.595688 250.239807,32.861965 
M28.319036,41.942982 
	C29.794504,41.942982 31.269972,41.942982 33.150604,41.942982 
	C33.613239,39.099220 34.055180,36.382664 34.651596,32.716564 
	C28.736282,32.461479 23.317776,31.944986 17.913076,32.062675 
	C10.278138,32.228931 7.037327,35.722317 6.856315,43.212860 
	C6.649364,51.776760 9.337407,55.025803 17.296604,56.008587 
	C19.587465,56.291458 21.846533,56.831844 24.120176,57.254166 
	C18.823206,61.833340 13.242269,58.482418 7.610044,59.222916 
	C7.160003,61.990341 6.717272,64.712807 6.209969,67.832344 
	C14.260059,69.864510 22.159140,70.924706 29.867516,68.190514 
	C32.273376,67.337143 34.742355,64.493042 35.659836,61.999908 
	C39.042141,52.808990 34.457909,46.477612 24.101408,45.130688 
	C22.344202,44.902157 20.621153,44.410980 18.882324,44.041149 
	C18.990644,43.325581 19.098967,42.610016 19.207287,41.894447 
	C21.933510,41.894447 24.659731,41.894447 28.319036,41.942982 
M75.411217,34.766430 
	C74.061371,36.409977 72.135277,37.848255 71.463753,39.733433 
	C68.877998,46.992428 68.650261,54.616852 71.474068,61.686047 
	C72.642517,64.611183 76.364594,68.064117 79.278656,68.425171 
	C85.541595,69.201157 92.041992,68.224152 98.422806,67.694946 
	C99.299797,67.622208 100.712463,66.036072 100.748802,65.106491 
	C100.967690,59.507160 100.857567,53.894962 100.857567,48.297516 
	C95.826393,48.297516 91.455872,48.297516 86.134506,48.297516 
	C87.074516,52.140308 87.858246,55.344269 88.901352,59.608521 
	C87.376060,59.788979 84.942238,60.076923 82.011833,60.423618 
	C82.011833,55.092617 82.121414,50.613712 81.972511,46.143417 
	C81.876511,43.261253 82.914940,41.667038 85.886765,41.644695 
	C89.641136,41.616470 93.395874,41.637878 97.475182,41.637878 
	C97.954185,38.856178 98.415627,36.176506 98.923943,33.224556 
	C90.829773,31.716213 83.329216,30.609411 75.411217,34.766430 
M57.446056,68.880264 
	C60.381172,68.880264 63.316284,68.880264 66.116318,68.880264 
	C67.528755,59.315727 67.528755,59.315781 59.148422,59.313091 
	C57.982098,59.312717 56.703491,59.614086 55.678028,59.233601 
	C54.412296,58.763969 53.357079,57.726967 52.210896,56.935131 
	C53.304276,56.293663 54.351360,55.221706 55.500435,55.098137 
	C58.089687,54.819687 60.729435,55.010727 63.542564,55.010727 
	C63.542564,52.072594 63.542564,49.687233 63.542564,46.856884 
	C60.742050,46.856884 58.270599,46.778126 55.806099,46.875465 
	C52.170742,47.019054 51.528717,45.356617 52.894928,41.838516 
	C56.811249,41.838516 60.739044,41.838516 64.812355,41.838516 
	C65.226425,38.663445 65.577255,35.973309 65.928345,33.281193 
	C57.236271,33.281193 49.183918,33.281193 41.215672,33.281193 
	C41.215672,45.281307 41.215672,56.856510 41.215672,68.880127 
	C46.533318,68.880127 51.499302,68.880127 57.446056,68.880264 
M176.112854,35.773144 
	C176.112854,46.683720 176.112854,57.594292 176.112854,68.501480 
	C180.416046,68.501480 183.968384,68.501480 187.595947,68.501480 
	C187.595947,56.539276 187.595947,44.970280 187.595947,31.927084 
	C183.402145,32.992016 179.772278,33.913754 176.112854,35.773144 
z"/>
<path fill="#8B8B8B" opacity="1.000000" stroke="none" 
	d="
M456.873108,90.999756 
	C456.281097,101.929680 456.608215,112.516747 454.856293,122.747810 
	C452.876709,134.308502 445.616241,143.550247 436.361298,150.387146 
	C425.010559,158.772247 412.847076,166.056396 401.044250,173.830643 
	C396.605255,176.754532 391.854675,177.007263 387.251770,174.723633 
	C373.515350,167.908585 360.209381,160.446472 348.584839,150.192459 
	C335.450348,138.606567 329.570007,123.820709 329.261230,106.841957 
	C328.809967,82.027115 329.065552,57.199474 329.011749,32.377308 
	C329.001923,27.841265 331.169891,26.171280 335.754547,25.757328 
	C346.317993,24.803549 356.914520,23.672215 367.319611,21.682238 
	C375.424530,20.132175 382.445557,15.888234 388.245850,9.719827 
	C392.998962,4.665042 393.420319,4.890278 397.897644,9.946379 
	C404.046844,16.890463 412.366333,20.083685 421.035278,21.858130 
	C430.451050,23.785450 440.066010,24.826725 449.635742,25.874147 
	C453.732697,26.322569 456.197876,27.539959 456.287964,32.066872 
	C456.473297,41.384003 456.985138,50.696175 457.077454,60.013214 
	C457.178131,70.173714 456.955933,80.337425 456.873108,90.999756 
M409.385071,149.888046 
	C414.354431,146.540771 419.466339,143.384613 424.263763,139.806793 
	C434.558441,132.129196 441.836151,122.465462 442.226227,109.058029 
	C442.753723,90.925957 443.455597,72.776665 443.157684,54.649952 
	C442.920288,40.203445 446.577148,39.562126 427.942566,38.951973 
	C415.890503,38.557350 405.339294,35.395851 396.672516,26.918575 
	C394.211578,24.511459 392.457428,24.974333 389.825836,26.803013 
	C384.963013,30.182116 380.053558,34.145878 374.544220,35.787010 
	C366.678833,38.129974 358.291229,39.125572 350.058350,39.677410 
	C345.097595,40.009922 343.107727,41.651001 343.038544,46.383850 
	C342.783051,63.862263 342.190704,81.340782 342.261536,98.817093 
	C342.305908,109.763641 344.333405,120.492393 351.526428,129.293137 
	C361.291962,141.241379 373.875671,149.678421 387.725067,156.072296 
	C390.638062,157.417145 394.973602,156.874451 398.263397,155.893158 
	C401.990875,154.781311 405.279236,152.197266 409.385071,149.888046 
z"/>
<path fill="#8B8B8B" opacity="1.000000" stroke="none" 
	d="
M64.997116,115.077309 
	C65.103226,112.434425 65.021111,110.245529 65.344948,108.118431 
	C68.022087,90.533852 75.614044,84.024933 93.525986,83.874420 
	C95.689209,83.856239 97.857849,83.877876 100.016388,84.007492 
	C113.512077,84.817909 120.426384,90.564285 123.316833,103.714874 
	C125.416367,113.267052 125.327370,122.902733 122.937172,132.387451 
	C120.553459,141.846390 114.575943,147.827194 104.684105,149.055222 
	C99.595306,149.686966 94.389687,150.121826 89.291565,149.794235 
	C74.226837,148.826218 66.390152,140.457184 65.168015,124.546059 
	C64.938957,121.563904 65.045403,118.555969 64.997116,115.077309 
M89.693108,132.859268 
	C92.836105,132.651047 96.079231,132.835236 99.079956,132.069489 
	C100.586250,131.685104 102.695694,129.610840 102.746635,128.234680 
	C103.077110,119.308334 102.916122,110.363792 102.916122,101.024887 
	C99.279655,101.024887 96.150230,100.984215 93.022278,101.034889 
	C88.846497,101.102554 86.629745,102.812988 86.803070,107.453453 
	C87.070244,114.606659 86.779152,121.779556 86.959404,128.938187 
	C86.992401,130.248810 88.142372,131.531281 89.693108,132.859268 
z"/>
<path fill="#8B8B8B" opacity="1.000000" stroke="none" 
	d="
M7.995984,111.000000 
	C7.995983,102.227287 7.995983,93.954567 7.995983,85.613091 
	C20.945198,85.613091 33.384808,85.139969 45.765697,85.788239 
	C53.351028,86.185410 56.218575,89.641113 57.546940,96.476242 
	C58.901867,103.448044 56.347790,110.016121 50.936237,113.473694 
	C50.417553,113.805099 49.895355,114.130997 49.272022,114.524300 
	C59.767990,120.077827 63.037453,127.250137 60.029995,137.804001 
	C58.354786,143.682693 54.459614,147.718796 48.441612,147.920349 
	C35.198956,148.363876 21.931202,148.058014 7.995986,148.058014 
	C7.995986,135.983124 7.995986,123.741562 7.995984,111.000000 
M28.974720,123.377487 
	C28.601276,126.680817 28.227833,129.984146 27.794184,133.820023 
	C30.952576,133.820023 33.235439,133.968903 35.491238,133.785263 
	C38.908737,133.507050 40.306469,131.486816 40.177944,128.075500 
	C40.054474,124.798462 38.471901,123.211853 35.285126,123.133224 
	C33.468723,123.088409 31.649797,123.145782 28.974720,123.377487 
M38.212524,103.471474 
	C36.994061,98.668510 35.034538,97.932098 28.531368,99.757072 
	C28.531368,102.669426 28.531368,105.538383 28.531368,108.694710 
	C32.529140,108.150780 37.343861,110.734764 38.212524,103.471474 
z"/>
<path fill="#8B8B8B" opacity="1.000000" stroke="none" 
	d="
M277.412170,85.245178 
	C283.679230,85.167480 289.487000,85.167480 295.714905,85.167480 
	C295.714905,106.329475 295.714905,127.183411 295.714905,148.358002 
	C289.248444,148.358002 282.854187,148.358002 276.009583,148.358002 
	C276.009583,140.969223 276.009583,133.871582 276.009583,126.463524 
	C270.983765,126.463524 266.401001,126.463524 261.179138,126.463524 
	C261.179138,133.634323 261.179138,140.853088 261.179138,148.359344 
	C254.149857,148.359344 247.755630,148.359344 241.110901,148.359344 
	C241.110901,127.296211 241.110901,106.549324 241.110901,85.467407 
	C247.701141,85.467407 254.083725,85.467407 260.904083,85.467407 
	C260.904083,92.613739 260.904083,99.544228 260.904083,106.895920 
	C266.016907,106.895920 270.703918,106.895920 275.997009,106.895920 
	C275.997009,101.376884 275.921875,95.926727 276.040863,90.480812 
	C276.078552,88.755684 276.634247,87.041870 277.412170,85.245178 
z"/>
<path fill="#8B8B8B" opacity="1.000000" stroke="none" 
	d="
M155.851440,126.978081 
	C151.310699,126.333328 147.165924,125.911125 143.120560,125.031647 
	C135.790527,123.438072 131.239136,118.630150 130.595352,111.314491 
	C130.125107,105.971001 130.729340,100.383926 131.795822,95.095230 
	C132.910950,89.565254 137.228470,86.316360 142.603561,85.170967 
	C154.667084,82.600311 166.657349,83.736961 179.028870,86.312531 
	C178.180359,91.698517 177.391479,96.705917 176.565247,101.950439 
	C170.296951,101.623177 164.364426,101.061691 158.439453,101.132271 
	C156.178207,101.159203 151.986862,99.061012 152.006180,103.939224 
	C152.022842,108.143761 155.839478,106.512062 158.146011,106.967537 
	C161.076401,107.546219 164.107666,107.659653 167.005142,108.351707 
	C179.868805,111.424164 185.245972,121.770943 181.525238,135.805664 
	C179.638870,142.921127 175.414551,147.533905 168.047150,148.831741 
	C155.118561,151.109253 142.317902,150.270050 129.197968,147.331512 
	C130.149261,141.729782 131.028534,136.552185 131.860107,131.655457 
	C140.217712,132.086975 148.114365,132.609161 156.019119,132.804886 
	C157.573685,132.843369 160.184677,131.972076 160.545319,130.917450 
	C161.803467,127.238052 159.018539,126.935051 155.851440,126.978081 
z"/>
<path fill="#8B8B8B" opacity="1.000000" stroke="none" 
	d="
M192.199158,93.322937 
	C201.215866,82.261955 213.247894,83.612534 225.103165,84.353271 
	C226.256714,84.425346 227.385803,84.909462 228.538528,84.970474 
	C232.841461,85.198257 233.784958,87.413719 232.730392,91.294891 
	C231.824860,94.627525 231.302765,98.064331 230.735565,100.844872 
	C224.803787,100.844872 219.363876,100.780045 213.926437,100.868454 
	C210.496765,100.924210 208.831192,102.742950 208.860458,106.265976 
	C208.929520,114.584351 208.882614,122.903694 208.882614,131.401810 
	C216.593231,134.484390 224.030228,132.014206 232.019821,130.887360 
	C232.520081,135.878647 233.152817,140.620102 233.339783,145.379074 
	C233.377289,146.333908 231.879135,147.976120 230.817825,148.249893 
	C220.434708,150.928329 210.031784,151.174713 199.968719,146.981628 
	C194.437576,144.676941 190.729965,140.192871 189.313370,134.455750 
	C185.897598,120.622192 185.153687,106.841347 192.199158,93.322937 
z"/>
<path fill="#8D8D8D" opacity="1.000000" stroke="none" 
	d="
M193.306427,56.978271 
	C193.306671,48.864948 193.306671,41.246994 193.306671,33.399830 
	C201.459885,33.399830 209.174301,33.384926 216.888397,33.427563 
	C217.519104,33.431046 218.160263,33.795731 218.775238,34.045151 
	C224.751572,36.468979 227.615143,43.423996 226.727875,53.333305 
	C225.890182,62.689068 223.192017,67.001923 216.075974,67.945366 
	C208.761673,68.915077 201.305099,68.811707 193.306168,69.207870 
	C193.306168,64.703186 193.306168,61.088413 193.306427,56.978271 
M214.694824,54.949997 
	C214.700180,53.284363 214.713669,51.618706 214.709534,49.953094 
	C214.689514,41.889980 213.781799,41.144863 205.112503,42.603550 
	C205.112503,46.450584 204.895096,50.425396 205.209808,54.357624 
	C205.354004,56.159161 206.302963,59.199074 207.306274,59.382389 
	C210.202774,59.911613 213.909088,60.422150 214.694824,54.949997 
z"/>
<path fill="#8B8B8B" opacity="1.000000" stroke="none" 
	d="
M151.017166,32.861786 
	C153.673706,32.861824 155.838562,32.852444 158.003326,32.863636 
	C169.458954,32.922855 175.892746,42.991238 169.660034,52.591923 
	C166.579483,57.337154 167.648712,60.192135 169.868073,63.962528 
	C170.613968,65.229729 171.115829,66.640587 172.191406,68.999344 
	C167.575638,68.757454 162.786545,69.829514 159.855621,67.971062 
	C157.070175,66.204849 156.227722,61.374393 154.530914,57.891293 
	C154.045074,57.971035 153.559235,58.050781 153.073395,58.130524 
	C152.826035,61.570702 152.578690,65.010880 152.318161,68.634201 
	C148.446167,68.634201 145.024933,68.634201 141.298950,68.634201 
	C141.298950,56.818462 141.298950,45.240517 141.298950,32.861866 
	C144.359985,32.861866 147.442719,32.861866 151.017166,32.861786 
M158.590073,48.079517 
	C159.379715,41.995422 158.737610,41.396271 152.674683,42.626228 
	C152.674683,44.659756 152.674683,46.698414 152.674683,49.098511 
	C154.728699,48.927746 156.351273,48.792847 158.590073,48.079517 
z"/>
<path fill="#8B8B8B" opacity="1.000000" stroke="none" 
	d="
M265.860016,47.005733 
	C265.859924,42.203583 265.859924,37.899887 265.859924,33.469391 
	C273.825195,33.469391 281.494598,32.712460 288.939545,33.680958 
	C296.478333,34.661659 299.359558,41.032509 298.953003,52.322884 
	C298.597382,62.197891 295.455750,67.063904 287.742798,68.008530 
	C280.716431,68.869049 273.577118,68.807327 265.860107,69.182632 
	C265.860107,61.391914 265.860107,54.448051 265.860016,47.005733 
M280.556244,59.731419 
	C282.565155,58.921127 286.212494,58.262707 286.304077,57.274689 
	C286.738739,52.585712 286.682800,47.697701 285.644684,43.144344 
	C285.413574,42.130745 280.510742,42.182278 277.273407,41.665977 
	C277.273407,47.408478 277.126343,52.053181 277.385101,56.675163 
	C277.443939,57.726295 278.908081,58.698757 280.556244,59.731419 
z"/>
<path fill="#8E8E8E" opacity="1.000000" stroke="none" 
	d="
M124.415703,34.456783 
	C128.095016,33.488331 131.698334,32.971188 135.704285,32.396263 
	C135.704285,42.066635 136.118042,50.854107 135.560745,59.579556 
	C135.180740,65.529106 131.868362,68.139275 125.864319,69.171906 
	C124.558403,69.396515 123.239540,69.628601 121.919922,69.678017 
	C109.167473,70.155609 105.090408,66.250015 104.994942,53.431534 
	C104.945587,46.804134 104.986267,40.176067 104.986267,33.203224 
	C108.933929,33.203224 112.488274,33.203224 116.575043,33.203224 
	C116.575043,41.902084 116.575043,50.491245 116.575043,58.931850 
	C123.267899,60.663013 124.264725,59.957623 124.297661,53.881920 
	C124.331940,47.557423 124.327316,41.232712 124.415703,34.456783 
z"/>
<path fill="#8B8B8B" opacity="1.000000" stroke="none" 
	d="
M250.699524,32.862267 
	C252.421402,33.595688 254.537628,34.093662 254.814178,35.098137 
	C257.725800,45.673454 260.350464,56.327946 263.017731,66.969757 
	C263.124390,67.395279 262.865326,67.912476 262.686646,68.868561 
	C259.737579,68.868561 256.753632,69.042671 253.810852,68.770836 
	C252.827087,68.679955 251.239670,67.534325 251.143158,66.725807 
	C250.695938,62.978939 248.322464,62.891685 245.426132,62.955200 
	C242.644791,63.016197 240.083542,62.736942 239.705582,66.678223 
	C239.626373,67.504120 237.672424,68.639839 236.486557,68.771812 
	C233.701523,69.081764 230.858536,68.871048 227.198334,68.871048 
	C228.330597,64.368774 229.339539,60.292564 230.382431,56.225056 
	C231.910400,50.265759 233.815262,44.375431 234.889771,38.336540 
	C235.706680,33.745426 237.793625,32.209515 242.248962,32.798653 
	C244.869537,33.145176 247.573410,32.861946 250.699524,32.862267 
M246.230164,53.875118 
	C246.403976,50.737774 246.577774,47.600426 246.751572,44.463081 
	C246.208084,44.415390 245.664581,44.367695 245.121078,44.320004 
	C244.459229,46.779957 243.620087,49.214603 243.262680,51.718014 
	C243.175552,52.328373 244.669785,53.164494 246.230164,53.875118 
z"/>
<path fill="#8C8C8C" opacity="1.000000" stroke="none" 
	d="
M27.852495,41.918716 
	C24.659731,41.894447 21.933510,41.894447 19.207287,41.894447 
	C19.098967,42.610016 18.990644,43.325581 18.882324,44.041149 
	C20.621153,44.410980 22.344202,44.902157 24.101408,45.130688 
	C34.457909,46.477612 39.042141,52.808990 35.659836,61.999908 
	C34.742355,64.493042 32.273376,67.337143 29.867516,68.190514 
	C22.159140,70.924706 14.260059,69.864510 6.209969,67.832344 
	C6.717272,64.712807 7.160003,61.990341 7.610044,59.222916 
	C13.242269,58.482418 18.823206,61.833340 24.120176,57.254166 
	C21.846533,56.831844 19.587465,56.291458 17.296604,56.008587 
	C9.337407,55.025803 6.649364,51.776760 6.856315,43.212860 
	C7.037327,35.722317 10.278138,32.228931 17.913076,32.062675 
	C23.317776,31.944986 28.736282,32.461479 34.651596,32.716564 
	C34.055180,36.382664 33.613239,39.099220 33.150604,41.942982 
	C31.269972,41.942982 29.794504,41.942982 27.852495,41.918716 
z"/>
<path fill="#8C8C8C" opacity="1.000000" stroke="none" 
	d="
M75.717140,34.541428 
	C83.329216,30.609411 90.829773,31.716213 98.923943,33.224556 
	C98.415627,36.176506 97.954185,38.856178 97.475182,41.637878 
	C93.395874,41.637878 89.641136,41.616470 85.886765,41.644695 
	C82.914940,41.667038 81.876511,43.261253 81.972511,46.143417 
	C82.121414,50.613712 82.011833,55.092617 82.011833,60.423618 
	C84.942238,60.076923 87.376060,59.788979 88.901352,59.608521 
	C87.858246,55.344269 87.074516,52.140308 86.134506,48.297516 
	C91.455872,48.297516 95.826393,48.297516 100.857567,48.297516 
	C100.857567,53.894962 100.967690,59.507160 100.748802,65.106491 
	C100.712463,66.036072 99.299797,67.622208 98.422806,67.694946 
	C92.041992,68.224152 85.541595,69.201157 79.278656,68.425171 
	C76.364594,68.064117 72.642517,64.611183 71.474068,61.686047 
	C68.650261,54.616852 68.877998,46.992428 71.463753,39.733433 
	C72.135277,37.848255 74.061371,36.409977 75.717140,34.541428 
z"/>
<path fill="#8C8C8C" opacity="1.000000" stroke="none" 
	d="
M56.955673,68.880196 
	C51.499302,68.880127 46.533318,68.880127 41.215672,68.880127 
	C41.215672,56.856510 41.215672,45.281307 41.215672,33.281193 
	C49.183918,33.281193 57.236271,33.281193 65.928345,33.281193 
	C65.577255,35.973309 65.226425,38.663445 64.812355,41.838516 
	C60.739044,41.838516 56.811249,41.838516 52.894928,41.838516 
	C51.528717,45.356617 52.170742,47.019054 55.806099,46.875465 
	C58.270599,46.778126 60.742050,46.856884 63.542564,46.856884 
	C63.542564,49.687233 63.542564,52.072594 63.542564,55.010727 
	C60.729435,55.010727 58.089687,54.819687 55.500435,55.098137 
	C54.351360,55.221706 53.304276,56.293663 52.210896,56.935135 
	C53.357079,57.726967 54.412296,58.763969 55.678028,59.233601 
	C56.703491,59.614086 57.982098,59.312717 59.148422,59.313091 
	C67.528755,59.315781 67.528755,59.315727 66.116318,68.880264 
	C63.316284,68.880264 60.381172,68.880264 56.955673,68.880196 
z"/>
<path fill="#8F8F8F" opacity="1.000000" stroke="none" 
	d="
M176.127625,35.304314 
	C179.772278,33.913754 183.402145,32.992016 187.595947,31.927084 
	C187.595947,44.970280 187.595947,56.539276 187.595947,68.501480 
	C183.968384,68.501480 180.416046,68.501480 176.112854,68.501480 
	C176.112854,57.594292 176.112854,46.683720 176.127625,35.304314 
z"/>
<path fill="#FDFDFD" opacity="1.000000" stroke="none" 
	d="
M409.071777,150.070679 
	C405.279236,152.197266 401.990875,154.781311 398.263397,155.893158 
	C394.973602,156.874451 390.638062,157.417145 387.725067,156.072296 
	C373.875671,149.678421 361.291962,141.241379 351.526428,129.293137 
	C344.333405,120.492393 342.305908,109.763641 342.261536,98.817093 
	C342.190704,81.340782 342.783051,63.862263 343.038544,46.383850 
	C343.107727,41.651001 345.097595,40.009922 350.058350,39.677410 
	C358.291229,39.125572 366.678833,38.129974 374.544220,35.787010 
	C380.053558,34.145878 384.963013,30.182116 389.825836,26.803013 
	C392.457428,24.974333 394.211578,24.511459 396.672516,26.918575 
	C405.339294,35.395851 415.890503,38.557350 427.942566,38.951973 
	C446.577148,39.562126 442.920288,40.203445 443.157684,54.649952 
	C443.455597,72.776665 442.753723,90.925957 442.226227,109.058029 
	C441.836151,122.465462 434.558441,132.129196 424.263763,139.806793 
	C419.466339,143.384613 414.354431,146.540771 409.071777,150.070679 
M415.313995,85.827995 
	C422.434113,77.529114 429.554199,69.230225 436.726135,60.870964 
	C435.123810,59.018250 434.066681,57.795895 432.918732,56.468533 
	C412.507202,65.798164 399.325409,83.608658 383.142822,97.424072 
	C377.084137,92.808640 371.410736,88.486710 365.199860,83.755341 
	C361.864624,86.570221 358.662659,89.272598 354.413147,92.859085 
	C366.462158,104.429100 377.807953,115.323822 388.905396,125.980095 
	C397.765320,112.461449 406.312836,99.419502 415.313995,85.827995 
z"/>
<path fill="#FEFEFE" opacity="1.000000" stroke="none" 
	d="
M89.234924,132.843018 
	C88.142372,131.531281 86.992401,130.248810 86.959404,128.938187 
	C86.779152,121.779556 87.070244,114.606659 86.803070,107.453453 
	C86.629745,102.812988 88.846497,101.102554 93.022278,101.034889 
	C96.150230,100.984215 99.279655,101.024887 102.916122,101.024887 
	C102.916122,110.363792 103.077110,119.308334 102.746635,128.234680 
	C102.695694,129.610840 100.586250,131.685104 99.079956,132.069489 
	C96.079231,132.835236 92.836105,132.651047 89.234924,132.843018 
z"/>
<path fill="#F7F7F7" opacity="1.000000" stroke="none" 
	d="
M29.403364,123.267311 
	C31.649797,123.145782 33.468723,123.088409 35.285126,123.133224 
	C38.471901,123.211853 40.054474,124.798462 40.177944,128.075500 
	C40.306469,131.486816 38.908737,133.507050 35.491238,133.785263 
	C33.235439,133.968903 30.952576,133.820023 27.794184,133.820023 
	C28.227833,129.984146 28.601276,126.680817 29.403364,123.267311 
z"/>
<path fill="#F7F7F7" opacity="1.000000" stroke="none" 
	d="
M38.204849,103.897789 
	C37.343861,110.734764 32.529140,108.150780 28.531368,108.694710 
	C28.531368,105.538383 28.531368,102.669426 28.531368,99.757072 
	C35.034538,97.932098 36.994061,98.668510 38.204849,103.897789 
z"/>
<path fill="#F7F7F7" opacity="1.000000" stroke="none" 
	d="
M214.660431,55.376350 
	C213.909088,60.422150 210.202774,59.911613 207.306274,59.382389 
	C206.302963,59.199074 205.354004,56.159161 205.209808,54.357624 
	C204.895096,50.425396 205.112503,46.450584 205.112503,42.603550 
	C213.781799,41.144863 214.689514,41.889980 214.709534,49.953094 
	C214.713669,51.618706 214.700180,53.284363 214.660431,55.376350 
z"/>
<path fill="#F4F4F4" opacity="1.000000" stroke="none" 
	d="
M158.281952,48.368732 
	C156.351273,48.792847 154.728699,48.927746 152.674683,49.098511 
	C152.674683,46.698414 152.674683,44.659756 152.674683,42.626228 
	C158.737610,41.396271 159.379715,41.995422 158.281952,48.368732 
z"/>
<path fill="#F4F4F4" opacity="1.000000" stroke="none" 
	d="
M280.140808,59.719421 
	C278.908081,58.698757 277.443939,57.726295 277.385101,56.675163 
	C277.126343,52.053181 277.273407,47.408478 277.273407,41.665977 
	C280.510742,42.182278 285.413574,42.130745 285.644684,43.144344 
	C286.682800,47.697701 286.738739,52.585712 286.304077,57.274689 
	C286.212494,58.262707 282.565155,58.921127 280.140808,59.719421 
z"/>
<path fill="#F4F4F4" opacity="1.000000" stroke="none" 
	d="
M245.833527,53.885963 
	C244.669785,53.164494 243.175552,52.328373 243.262680,51.718014 
	C243.620087,49.214603 244.459229,46.779957 245.121078,44.320004 
	C245.664581,44.367695 246.208084,44.415390 246.751572,44.463081 
	C246.577774,47.600426 246.403976,50.737774 245.833527,53.885963 
z"/>
<path fill="#E32228" opacity="1.000000" stroke="none" 
	d="
M415.087158,86.102776 
	C406.312836,99.419502 397.765320,112.461449 388.905396,125.980095 
	C377.807953,115.323822 366.462158,104.429100 354.413147,92.859085 
	C358.662659,89.272598 361.864624,86.570221 365.199860,83.755341 
	C371.410736,88.486710 377.084137,92.808640 383.142822,97.424072 
	C399.325409,83.608658 412.507202,65.798164 432.918732,56.468533 
	C434.066681,57.795895 435.123810,59.018250 436.726135,60.870964 
	C429.554199,69.230225 422.434113,77.529114 415.087158,86.102776 
z"/>
</svg>